<svg version="1.1" xmlns="http://www.w3.org/2000/svg" viewBox="0 0 391.8813172162322 546.8076923076924" width="391.8813172162322" height="546.8076923076924">
  <!-- svg-source:excalidraw -->
  
  <defs>
    <style class="style-fonts">
      @font-face {
        font-family: "Virgil";
        src: url("https://excalidraw.com/Virgil.woff2");
      }
      @font-face {
        font-family: "Cascadia";
        src: url("https://excalidraw.com/Cascadia.woff2");
      }
      @font-face {
        font-family: "Assistant";
        src: url("https://excalidraw.com/Assistant-Regular.woff2");
      }
    </style>
    
  </defs>
  <rect x="0" y="0" width="391.8813172162322" height="546.8076923076924" fill="#ffffff"></rect><g stroke-linecap="round" transform="translate(90.10910671733336 10) rotate(0 100.5 96.5)"><path d="M120.22 2.11 C132.43 3.02, 145.09 9.56, 155.77 16.32 C166.44 23.07, 177.22 32.65, 184.27 42.63 C191.31 52.61, 195.6 64.12, 198.05 76.19 C200.49 88.26, 201.39 102.78, 198.96 115.03 C196.52 127.28, 190.56 139.55, 183.45 149.68 C176.35 159.81, 166.72 168.79, 156.32 175.82 C145.91 182.86, 133.61 189.28, 121.03 191.88 C108.46 194.48, 93.59 194.02, 80.88 191.4 C68.17 188.79, 55.23 183.09, 44.78 176.22 C34.32 169.34, 25.15 160.27, 18.15 150.18 C11.14 140.08, 5.48 127.57, 2.75 115.65 C0.02 103.74, -0.47 90.8, 1.77 78.67 C4.01 66.55, 9.07 53.26, 16.19 42.92 C23.3 32.58, 33.89 23.35, 44.47 16.62 C55.06 9.89, 65.15 4.63, 79.68 2.52 C94.21 0.42, 121.37 2.48, 131.64 4 C141.91 5.52, 141.9 10, 141.3 11.63 M95.22 -0.67 C107.49 -2.97, 121.89 -0.23, 133.85 3.77 C145.82 7.77, 157.51 14.98, 167 23.33 C176.48 31.68, 185.35 42.66, 190.76 53.89 C196.17 65.12, 198.52 78.24, 199.46 90.7 C200.39 103.15, 200.34 116.89, 196.36 128.62 C192.38 140.35, 184.28 151.94, 175.57 161.08 C166.87 170.23, 155.69 178.33, 144.12 183.51 C132.55 188.68, 118.6 191.53, 106.14 192.13 C93.68 192.74, 81.24 191.17, 69.36 187.14 C57.48 183.11, 44.86 176.03, 34.86 167.96 C24.87 159.9, 15 149.57, 9.38 138.74 C3.76 127.91, 1.79 115.19, 1.16 102.96 C0.54 90.73, 1.52 77.16, 5.61 65.36 C9.7 53.56, 17.43 41.42, 25.7 32.15 C33.98 22.87, 43.86 15.25, 55.27 9.72 C66.68 4.2, 87.81 0.03, 94.14 -1 C100.48 -2.04, 93.16 1.7, 93.29 3.52" stroke="#2f9e44" stroke-width="2" fill="none"></path></g><g transform="translate(135.0148535406047 83.76419561549824) rotate(0 55.53002166748047 22.5)"><text x="55.53002166748047" y="31.536" font-family="Virgil, Segoe UI Emoji" font-size="36px" fill="#2f9e44" text-anchor="middle" style="white-space: pre;" direction="ltr" dominant-baseline="alphabetic">Server</text></g><g stroke-linecap="round" transform="translate(96.8783374865643 170) rotate(0 94.5 98)"><path d="M105.8 1.34 C117.18 1.29, 129.9 7.02, 140.37 12.93 C150.83 18.85, 161.16 26.95, 168.6 36.83 C176.03 46.71, 181.82 59.93, 184.98 72.22 C188.14 84.5, 188.87 98.25, 187.57 110.54 C186.27 122.84, 182.9 135.23, 177.17 145.99 C171.44 156.75, 162.69 167.21, 153.17 175.1 C143.66 182.98, 131.82 190.1, 120.07 193.31 C108.32 196.52, 94.66 196.18, 82.67 194.38 C70.68 192.57, 58.42 188.37, 48.12 182.46 C37.82 176.56, 28.45 168.72, 20.84 158.94 C13.24 149.16, 5.78 135.99, 2.49 123.81 C-0.8 111.63, -0.4 98.23, 1.1 85.86 C2.59 73.49, 5.5 60.39, 11.46 49.59 C17.42 38.78, 27.09 28.85, 36.87 21.02 C46.65 13.19, 57.83 5.78, 70.15 2.62 C82.48 -0.55, 103.39 1.58, 110.81 2.04 C118.24 2.5, 115.13 3.98, 114.72 5.4 M129.75 5.48 C141.11 8.16, 150.56 18.54, 159.32 27.31 C168.09 36.08, 177.23 46.72, 182.32 58.1 C187.41 69.47, 189.58 82.93, 189.88 95.57 C190.18 108.21, 188.62 122.46, 184.14 133.92 C179.67 145.37, 171.53 155.14, 163.04 164.32 C154.55 173.51, 144.19 183.96, 133.21 189.02 C122.23 194.09, 109.42 194.51, 97.13 194.72 C84.85 194.92, 70.86 194.29, 59.5 190.25 C48.13 186.22, 37.31 179.15, 28.95 170.5 C20.59 161.85, 14.4 149.94, 9.33 138.35 C4.26 126.75, -1.09 113.31, -1.47 100.94 C-1.84 88.56, 2.75 75.72, 7.09 64.08 C11.43 52.44, 16.28 40.26, 24.56 31.08 C32.83 21.91, 45.37 14.43, 56.73 9.04 C68.09 3.65, 80.9 -0.98, 92.72 -1.25 C104.54 -1.53, 121.72 5.78, 127.66 7.38 C133.6 8.98, 128.54 6.72, 128.35 8.34" stroke="#1971c2" stroke-width="2" fill="none"></path></g><g transform="translate(142.86672896424034 245.70353544371824) rotate(0 48.69001770019531 22.5)"><text x="48.69001770019531" y="31.536" font-family="Virgil, Segoe UI Emoji" font-size="36px" fill="#1971c2" text-anchor="middle" style="white-space: pre;" direction="ltr" dominant-baseline="alphabetic">Client</text></g><g stroke-linecap="round" transform="translate(100.10910671733336 315) rotate(0 96 92)"><path d="M130.05 5.74 C141.59 8.25, 154.44 16.31, 163.37 24.62 C172.3 32.93, 178.77 44.69, 183.62 55.6 C188.48 66.52, 192.29 78.4, 192.5 90.09 C192.7 101.78, 189.5 114.91, 184.85 125.75 C180.21 136.59, 172.87 146.54, 164.63 155.12 C156.38 163.7, 146.56 172.41, 135.4 177.22 C124.24 182.03, 110.1 183.93, 97.66 183.99 C85.22 184.06, 72.07 181.88, 60.78 177.62 C49.49 173.36, 38.74 166.44, 29.92 158.43 C21.1 150.43, 12.85 140.26, 7.88 129.58 C2.91 118.89, 0.26 106.23, 0.08 94.34 C-0.1 82.45, 2.37 69.29, 6.8 58.23 C11.23 47.18, 18.21 36.45, 26.67 28 C35.14 19.56, 46.23 12.38, 57.6 7.55 C68.98 2.72, 82.17 -1.12, 94.92 -0.98 C107.67 -0.83, 127.07 6.63, 134.09 8.43 C141.1 10.22, 137.64 8.41, 137 9.81 M81.07 1.7 C92.18 -1.26, 104.41 1.17, 116.1 3.64 C127.78 6.12, 141.1 9.87, 151.16 16.56 C161.23 23.24, 169.89 33.74, 176.49 43.76 C183.08 53.78, 188.6 65.39, 190.72 76.68 C192.84 87.98, 191.91 99.87, 189.2 111.54 C186.48 123.2, 181.5 137.01, 174.43 146.68 C167.35 156.34, 157.29 163.31, 146.74 169.5 C136.19 175.69, 123.37 181.83, 111.11 183.82 C98.84 185.81, 85.08 184.39, 73.17 181.44 C61.25 178.5, 49.48 173.11, 39.61 166.13 C29.74 159.16, 20.56 149.49, 13.95 139.59 C7.34 129.69, 1.67 118.31, -0.05 106.74 C-1.77 95.17, 0.93 81.63, 3.64 70.17 C6.35 58.7, 9.54 47.17, 16.23 37.95 C22.92 28.74, 33.37 20.99, 43.79 14.89 C54.2 8.78, 72.52 3.23, 78.75 1.31 C84.97 -0.6, 80.74 1.98, 81.12 3.42" stroke="#f08c00" stroke-width="2" fill="none"></path></g><g transform="translate(136.35882899002627 384.44617613083756) rotate(0 59.86802673339844 22.5)"><text x="59.86802673339844" y="31.536" font-family="Virgil, Segoe UI Emoji" font-size="36px" fill="#f08c00" text-anchor="middle" style="white-space: pre;" direction="ltr" dominant-baseline="alphabetic">batton</text></g><g stroke-linecap="round"><g transform="translate(11.109106717333361 477) rotate(0 184.5 -1)"><path d="M0.23 -1.2 C61.81 -1.88, 307.14 -2.64, 368.43 -2.96 M-1.11 0.79 C60.36 0.74, 305.28 -1.4, 367.18 -1.93" stroke="#e03131" stroke-width="2" fill="none"></path></g></g><mask></mask><g stroke-linecap="round"><g transform="translate(24.10910671733336 475) rotate(0 8.5 15)"><path d="M-1.03 0.16 C1.74 5.07, 14 24.6, 16.83 29.46 M0.63 -0.8 C3.2 4.27, 12.86 25.53, 15.79 30.72" stroke="#e03131" stroke-width="2" fill="none"></path></g></g><mask></mask><g stroke-linecap="round"><g transform="translate(51.10910671733336 474) rotate(0 10 16)"><path d="M-0.56 0.38 C2.67 6.04, 17.2 27.78, 20.56 32.92 M1.34 -0.47 C4.36 4.96, 17.03 25.84, 19.91 31.29" stroke="#e03131" stroke-width="2" fill="none"></path></g></g><mask></mask><g stroke-linecap="round"><g transform="translate(84.11036107137761 474.7726243843231) rotate(0 10 16)"><path d="M0.02 0.07 C3.28 5.17, 17.4 25.84, 20.54 31.16 M-1.43 -0.94 C1.63 4.25, 16.11 26.55, 19.87 32.25" stroke="#e03131" stroke-width="2" fill="none"></path></g></g><mask></mask><g stroke-linecap="round"><g transform="translate(113.11036107137761 474.7726243843231) rotate(0 10 16)"><path d="M-0.96 -0.9 C2.34 4.59, 15.34 27.89, 18.84 33.19 M0.74 1.24 C4.47 6.41, 17.85 26.63, 20.94 31.69" stroke="#e03131" stroke-width="2" fill="none"></path></g></g><mask></mask><g stroke-linecap="round"><g transform="translate(281.1103610713776 476.7726243843231) rotate(0 10 16)"><path d="M0.75 1.15 C4.12 6.63, 17.64 27.18, 20.69 32.39 M-0.31 0.71 C2.92 5.86, 16.47 25.54, 20.11 30.48" stroke="#e03131" stroke-width="2" fill="none"></path></g></g><mask></mask><g stroke-linecap="round"><g transform="translate(305.1103610713776 473.7726243843231) rotate(0 10 16)"><path d="M-0.19 0.89 C3.35 6.19, 17.22 25.82, 20.6 31.13 M-1.75 0.31 C1.75 5.8, 16.45 27.13, 19.97 32.22" stroke="#e03131" stroke-width="2" fill="none"></path></g></g><mask></mask><g stroke-linecap="round"><g transform="translate(327.1103610713776 475.7726243843231) rotate(0 10 16)"><path d="M-1.13 -1.05 C2.35 4.54, 17.05 27.39, 20.52 32.89 M0.47 1.01 C3.87 6.33, 16.8 25.86, 19.85 31.23" stroke="#e03131" stroke-width="2" fill="none"></path></g></g><mask></mask><g stroke-linecap="round"><g transform="translate(342.1103610713776 475.7726243843231) rotate(0 10 16)"><path d="M-0.07 -0.16 C2.95 5.1, 15.57 25.84, 18.99 31.25 M-1.56 -1.28 C1.74 4.14, 17.59 26.55, 21.17 32.4" stroke="#e03131" stroke-width="2" fill="none"></path></g></g><mask></mask><g stroke-linecap="round"><g transform="translate(361.1103610713776 474.7726243843231) rotate(0 10 16)"><path d="M0.31 1.14 C3.9 6.47, 17.39 27.29, 20.77 32.42 M-0.98 0.7 C2.58 5.62, 16.71 25.1, 20.23 30.52" stroke="#e03131" stroke-width="2" fill="none"></path></g></g><mask></mask><g transform="translate(168.10910671733336 176) rotate(0 21.16997528076172 12.5)"><text x="0" y="17.52" font-family="Virgil, Segoe UI Emoji" font-size="20px" fill="#1e1e1e" text-anchor="start" style="white-space: pre;" direction="ltr" dominant-baseline="alphabetic">http</text></g><g transform="translate(143.93913143657164 325.5) rotate(0 46.17994689941406 12.5)"><text x="0" y="17.52" font-family="Virgil, Segoe UI Emoji" font-size="20px" fill="#1e1e1e" text-anchor="start" style="white-space: pre;" direction="ltr" dominant-baseline="alphabetic">bluetooth</text></g><g transform="translate(182.93913143657164 478.5) rotate(0 14.54998779296875 12.5)"><text x="0" y="17.52" font-family="Virgil, Segoe UI Emoji" font-size="20px" fill="#1e1e1e" text-anchor="start" style="white-space: pre;" direction="ltr" dominant-baseline="alphabetic">nfc</text></g><g stroke-linecap="round" transform="translate(137.14952308807142 33.95959056507445) rotate(0 57 18)"><path d="M9 0 C32.95 -0.16, 56.69 1.8, 105 0 M9 0 C48.26 -0.54, 85.31 0.65, 105 0 M105 0 C112.32 1.24, 114.46 2.47, 114 9 M105 0 C111.88 1.34, 112.06 2.03, 114 9 M114 9 C114.4 15.33, 113.03 21.02, 114 27 M114 9 C114.46 15.54, 113.91 21.87, 114 27 M114 27 C115.68 31.35, 111.98 35.17, 105 36 M114 27 C112.37 31.38, 111.66 37.24, 105 36 M105 36 C75.06 34.98, 46.99 37.34, 9 36 M105 36 C73.89 35.15, 43.94 36.21, 9 36 M9 36 C2.94 37.5, 1.14 33.13, 0 27 M9 36 C4.57 36.15, 2.06 34.74, 0 27 M0 27 C1.74 20.54, -1.34 15.89, 0 9 M0 27 C0.94 20.37, -0.39 15.14, 0 9 M0 9 C0.12 2.27, 3.92 1.39, 9 0 M0 9 C-1.45 3.66, 4.04 -1.89, 9 0" stroke="#2f9e44" stroke-width="2" fill="none"></path></g><g transform="translate(151.14952308807142 40.95959056507445) rotate(0 43.25994873046875 12.5)"><text x="0" y="17.52" font-family="Virgil, Segoe UI Emoji" font-size="20px" fill="#1e1e1e" text-anchor="start" style="white-space: pre;" direction="ltr" dominant-baseline="alphabetic">algorithm</text></g><g stroke-linecap="round"><g transform="translate(166.49372210194906 501.0769230769231) rotate(0 20.6153846153843 -224.03846153846155)"><path d="M-0.11 -1.06 C8.61 -29.08, 52.66 -115.87, 52.1 -167.23 C51.55 -218.6, 13.61 -263.29, -3.44 -309.24 C-20.5 -355.18, -66.13 -419.75, -50.23 -442.9 C-34.33 -466.04, 74.72 -470.21, 91.94 -448.08 C109.16 -425.95, 55.8 -341.17, 53.08 -310.11 C50.36 -279.04, 72.02 -269.8, 75.6 -261.69 M-1.62 1 C6.9 -27, 50.8 -114.28, 50.89 -166.3 C50.97 -218.33, 16.22 -265.24, -1.1 -311.14 C-18.42 -357.04, -68.85 -418.94, -53.04 -441.7 C-37.22 -464.45, 75.89 -469.97, 93.77 -447.69 C111.64 -425.41, 57.66 -339.36, 54.21 -308.03 C50.77 -276.7, 69.88 -267.37, 73.11 -259.7" stroke="#da77f2" stroke-width="2" fill="none"></path></g></g><mask></mask><g transform="translate(173.33987594810242 461.03846153846166) rotate(0 6.538461538461661 -1.538461538461661)" stroke="none"><path fill="#da77f2" d="M -1.18,-2.36 Q -1.18,-2.36 -0.31,-2.83 0.55,-3.30 1.64,-4.32 2.73,-5.34 3.92,-6.71 5.10,-8.08 6.56,-9.01 8.01,-9.93 8.32,-11.24 8.63,-12.56 11.24,-13.23 13.84,-13.90 15.10,-12.52 16.37,-11.14 16.47,-9.71 16.57,-8.29 16.58,-6.58 16.59,-4.88 16.59,-3.69 16.59,-2.51 16.61,-1.17 16.62,0.16 16.35,1.52 16.07,2.88 16.00,5.67 15.93,8.46 15.84,9.04 15.74,9.62 15.47,10.14 15.19,10.66 14.76,11.06 14.34,11.46 13.80,11.71 13.27,11.95 12.69,12.02 12.10,12.08 11.53,11.95 10.96,11.83 10.45,11.52 9.95,11.22 9.57,10.77 9.19,10.32 8.97,9.78 8.76,9.23 8.73,8.65 8.69,8.06 8.85,7.49 9.01,6.93 9.34,6.44 9.67,5.96 10.14,5.60 10.61,5.25 11.16,5.06 11.72,4.87 12.31,4.87 12.89,4.88 13.45,5.06 14.01,5.25 14.47,5.61 14.94,5.96 15.27,6.45 15.60,6.94 15.76,7.50 15.91,8.07 15.88,8.66 15.85,9.24 15.63,9.79 15.41,10.33 15.03,10.78 14.65,11.23 14.14,11.53 13.64,11.83 13.07,11.96 12.49,12.08 11.91,12.02 11.33,11.95 10.79,11.71 10.26,11.46 9.84,11.05 9.41,10.65 9.14,10.13 8.86,9.61 8.77,9.03 8.67,8.45 8.67,8.45 8.67,8.45 8.73,5.68 8.78,2.92 9.15,1.54 9.52,0.16 9.54,-1.17 9.55,-2.51 9.55,-3.69 9.56,-4.87 9.55,-6.17 9.55,-7.46 10.42,-8.11 11.30,-8.75 12.80,-8.76 14.30,-8.76 13.50,-7.67 12.71,-6.58 11.29,-5.60 9.88,-4.61 8.72,-3.57 7.56,-2.53 6.65,-1.41 5.73,-0.30 4.36,0.61 2.98,1.53 2.08,1.95 1.18,2.36 0.88,2.47 0.58,2.58 0.26,2.61 -0.05,2.64 -0.36,2.60 -0.68,2.55 -0.98,2.43 -1.27,2.31 -1.53,2.13 -1.79,1.94 -2.00,1.70 -2.20,1.46 -2.35,1.17 -2.49,0.88 -2.56,0.57 -2.63,0.26 -2.62,-0.05 -2.62,-0.37 -2.53,-0.67 -2.45,-0.98 -2.30,-1.26 -2.14,-1.54 -1.93,-1.78 -1.71,-2.01 -1.44,-2.19 -1.18,-2.36 -1.18,-2.36 L -1.18,-2.36 Z"></path></g><g transform="translate(177.18602979425623 240.26923076923094) rotate(0 7.307692307692378 -7.307692307692378)" stroke="none"><path fill="#da77f2" d="M -2.57,-0.32 Q -2.57,-0.32 -2.27,-2.08 -1.98,-3.84 -1.94,-5.38 -1.91,-6.91 -1.66,-8.43 -1.42,-9.95 -1.01,-11.56 -0.60,-13.18 -0.70,-13.78 -0.79,-14.38 -0.71,-14.74 -0.62,-15.11 -0.45,-15.44 -0.28,-15.77 -0.04,-16.05 0.20,-16.34 0.50,-16.55 0.81,-16.77 1.16,-16.90 1.50,-17.04 1.87,-17.09 2.24,-17.14 2.61,-17.09 2.99,-17.05 3.34,-16.92 3.69,-16.80 4.00,-16.59 4.31,-16.38 4.56,-16.10 4.81,-15.82 4.98,-15.50 5.16,-15.17 5.25,-14.81 5.35,-14.44 5.35,-14.07 5.35,-13.70 4.31,-15.02 3.27,-16.34 4.54,-15.49 5.80,-14.64 6.36,-13.24 6.93,-11.85 8.36,-11.49 9.80,-11.12 12.22,-11.12 14.64,-11.12 15.19,-11.03 15.74,-10.93 16.23,-10.67 16.71,-10.40 17.09,-9.99 17.47,-9.59 17.70,-9.08 17.93,-8.57 17.98,-8.02 18.04,-7.47 17.91,-6.93 17.79,-6.39 17.50,-5.91 17.21,-5.44 16.78,-5.08 16.35,-4.73 15.83,-4.53 15.32,-4.33 14.76,-4.30 14.21,-4.28 13.67,-4.43 13.14,-4.59 12.68,-4.90 12.23,-5.22 11.89,-5.66 11.56,-6.11 11.39,-6.64 11.22,-7.16 11.22,-7.72 11.23,-8.28 11.41,-8.80 11.59,-9.32 11.93,-9.76 12.27,-10.20 12.74,-10.51 13.20,-10.82 13.74,-10.96 14.27,-11.10 14.83,-11.07 15.38,-11.03 15.90,-10.82 16.41,-10.61 16.83,-10.25 17.25,-9.88 17.53,-9.41 17.81,-8.93 17.93,-8.38 18.04,-7.84 17.97,-7.29 17.91,-6.74 17.67,-6.23 17.43,-5.73 17.05,-5.33 16.66,-4.93 16.17,-4.68 15.67,-4.42 15.13,-4.34 14.58,-4.25 14.58,-4.25 14.58,-4.25 11.90,-4.39 9.22,-4.52 7.92,-5.04 6.63,-5.57 5.05,-6.42 3.47,-7.28 2.58,-7.96 1.69,-8.64 1.50,-10.08 1.31,-11.51 0.25,-12.95 -0.79,-14.38 -0.71,-14.74 -0.62,-15.11 -0.45,-15.44 -0.28,-15.77 -0.04,-16.05 0.20,-16.34 0.50,-16.55 0.81,-16.77 1.16,-16.90 1.50,-17.04 1.87,-17.09 2.24,-17.14 2.61,-17.09 2.99,-17.05 3.34,-16.92 3.69,-16.80 4.00,-16.59 4.30,-16.38 4.56,-16.10 4.81,-15.82 4.98,-15.50 5.16,-15.17 5.25,-14.81 5.35,-14.44 5.35,-14.07 5.35,-13.70 5.21,-12.72 5.07,-11.74 4.63,-10.61 4.19,-9.48 3.76,-8.03 3.33,-6.58 3.09,-4.91 2.86,-3.23 2.72,-1.45 2.57,0.32 2.49,0.62 2.42,0.92 2.27,1.20 2.12,1.48 1.92,1.71 1.71,1.94 1.45,2.12 1.19,2.30 0.90,2.41 0.61,2.52 0.30,2.55 -0.00,2.59 -0.31,2.55 -0.62,2.51 -0.92,2.40 -1.21,2.29 -1.47,2.11 -1.72,1.93 -1.93,1.70 -2.13,1.46 -2.28,1.18 -2.42,0.91 -2.50,0.60 -2.57,0.30 -2.57,-0.00 -2.57,-0.32 -2.57,-0.32 L -2.57,-0.32 Z"></path></g><g transform="translate(114.10910671733336 87.19230769230785) rotate(0 -1.1538461538461888 8.846153846153811)" stroke="none"><path fill="#da77f2" d="M 2.57,0.64 Q 2.57,0.64 2.38,1.53 2.19,2.42 2.18,3.85 2.17,5.27 1.87,7.06 1.57,8.86 0.83,10.04 0.08,11.22 0.53,12.25 0.99,13.29 1.00,14.39 1.01,15.49 1.30,15.96 1.58,16.42 1.70,16.95 1.82,17.49 1.76,18.03 1.71,18.57 1.48,19.07 1.26,19.56 0.88,19.96 0.51,20.36 0.03,20.62 -0.44,20.87 -0.98,20.97 -1.52,21.06 -2.05,20.97 -2.59,20.89 -3.07,20.63 -3.56,20.38 -3.94,19.99 -4.31,19.59 -4.54,19.10 -4.78,18.61 -4.84,18.06 -4.90,17.52 -4.78,16.99 -4.67,16.46 -4.39,15.99 -4.11,15.52 -3.70,15.16 -3.29,14.81 -2.78,14.61 -2.28,14.40 -1.73,14.37 -1.19,14.34 -0.66,14.48 -0.14,14.62 0.31,14.93 0.76,15.23 1.09,15.66 1.43,16.09 1.60,16.61 1.78,17.12 1.78,17.67 1.78,18.21 1.61,18.73 1.44,19.25 1.11,19.69 0.79,20.12 0.34,20.43 -0.10,20.74 -0.63,20.89 -1.15,21.04 -1.70,21.01 -2.24,20.98 -2.75,20.78 -3.26,20.58 -3.67,20.23 -4.09,19.88 -4.09,19.88 -4.09,19.88 -4.84,16.57 -5.60,13.26 -5.54,12.04 -5.48,10.81 -5.28,9.65 -5.09,8.48 -4.40,7.50 -3.71,6.51 -3.63,5.09 -3.55,3.67 -3.32,2.39 -3.08,1.11 -2.82,0.23 -2.57,-0.64 -2.45,-0.94 -2.34,-1.24 -2.16,-1.50 -1.97,-1.76 -1.73,-1.97 -1.49,-2.18 -1.21,-2.33 -0.93,-2.48 -0.62,-2.55 -0.31,-2.63 0.00,-2.63 0.32,-2.63 0.63,-2.55 0.94,-2.47 1.23,-2.32 1.51,-2.17 1.75,-1.96 1.99,-1.75 2.17,-1.48 2.35,-1.22 2.46,-0.92 2.57,-0.62 2.61,-0.30 2.65,0.00 2.61,0.32 2.57,0.64 2.57,0.64 L 2.57,0.64 Z"></path></g><g transform="translate(114.87833748656385 85.65384615384642) rotate(0 6.538461538461661 6.153846153846075)" stroke="none"><path fill="#da77f2" d="M 2.36,-1.18 Q 2.36,-1.18 2.81,-0.33 3.26,0.50 4.10,1.39 4.94,2.27 6.17,3.13 7.41,3.99 8.94,4.94 10.47,5.89 12.11,7.00 13.76,8.12 14.27,8.77 14.79,9.42 15.21,9.77 15.62,10.12 15.91,10.58 16.19,11.05 16.31,11.58 16.43,12.11 16.37,12.65 16.31,13.19 16.09,13.68 15.86,14.18 15.49,14.57 15.12,14.97 14.64,15.22 14.16,15.48 13.62,15.57 13.09,15.66 12.55,15.58 12.01,15.49 11.53,15.24 11.05,14.98 10.67,14.59 10.30,14.20 10.07,13.71 9.84,13.21 9.78,12.67 9.72,12.13 9.83,11.60 9.95,11.07 10.22,10.61 10.50,10.14 10.92,9.78 11.33,9.43 11.83,9.23 12.34,9.03 12.88,8.99 13.42,8.96 13.95,9.11 14.47,9.25 14.92,9.55 15.37,9.85 15.70,10.29 16.03,10.72 16.21,11.23 16.38,11.75 16.39,12.29 16.39,12.83 16.22,13.35 16.05,13.86 15.72,14.30 15.39,14.73 14.94,15.04 14.49,15.35 13.97,15.49 13.45,15.64 12.91,15.61 12.36,15.59 11.86,15.39 11.35,15.19 11.35,15.19 11.35,15.19 9.76,13.14 8.16,11.08 7.14,10.57 6.11,10.06 4.93,9.52 3.76,8.98 2.86,8.35 1.97,7.72 1.15,6.77 0.33,5.82 -0.57,4.42 -1.49,3.03 -1.93,2.10 -2.36,1.18 -2.47,0.88 -2.58,0.58 -2.61,0.26 -2.64,-0.05 -2.60,-0.36 -2.55,-0.68 -2.43,-0.98 -2.31,-1.27 -2.13,-1.53 -1.94,-1.79 -1.70,-2.00 -1.46,-2.20 -1.17,-2.35 -0.88,-2.49 -0.57,-2.56 -0.26,-2.63 0.05,-2.62 0.37,-2.62 0.67,-2.53 0.98,-2.45 1.26,-2.30 1.54,-2.14 1.78,-1.93 2.01,-1.71 2.19,-1.44 2.36,-1.18 2.36,-1.18 L 2.36,-1.18 Z"></path></g><g transform="translate(231.80141440964098 141.03846153846166) rotate(0 5 9.230769230769283)" stroke="none"><path fill="#da77f2" d="M 2.58,0.51 Q 2.58,0.51 2.38,1.62 2.18,2.73 1.81,4.54 1.43,6.35 1.47,7.53 1.50,8.71 1.55,9.84 1.61,10.97 1.64,12.35 1.66,13.73 2.33,14.91 3.00,16.09 3.07,16.51 3.14,16.94 3.20,17.33 3.26,17.73 3.22,18.13 3.18,18.54 3.05,18.92 2.91,19.30 2.69,19.64 2.47,19.97 2.18,20.25 1.89,20.52 1.53,20.72 1.18,20.92 0.79,21.03 0.40,21.13 0.00,21.14 -0.39,21.16 -0.79,21.07 -1.18,20.98 -1.54,20.81 -1.90,20.63 -2.21,20.37 -2.52,20.11 -2.76,19.78 -3.00,19.46 -3.15,19.09 -3.30,18.71 -2.70,16.93 -2.10,15.14 -1.62,14.10 -1.14,13.06 -0.20,11.86 0.73,10.65 1.51,9.83 2.30,9.01 3.20,8.09 4.10,7.18 5.26,6.91 6.42,6.63 7.41,6.73 8.40,6.82 8.75,6.37 9.09,5.91 9.56,5.59 10.03,5.26 10.58,5.11 11.13,4.95 11.70,4.98 12.27,5.00 12.80,5.21 13.33,5.42 13.77,5.79 14.21,6.15 14.51,6.64 14.80,7.13 14.93,7.68 15.06,8.24 15.00,8.81 14.94,9.38 14.70,9.90 14.47,10.42 14.08,10.83 13.69,11.25 13.19,11.52 12.68,11.79 12.12,11.89 11.56,11.99 10.99,11.90 10.43,11.81 9.92,11.54 9.42,11.28 9.02,10.87 8.63,10.46 8.38,9.94 8.14,9.42 8.07,8.86 8.01,8.29 8.13,7.73 8.25,7.17 8.54,6.68 8.83,6.19 9.26,5.82 9.69,5.44 10.22,5.23 10.75,5.01 11.32,4.98 11.89,4.95 12.44,5.09 12.99,5.24 13.47,5.56 13.94,5.88 14.29,6.33 14.64,6.78 14.83,7.32 15.01,7.86 15.02,8.43 15.02,9.00 14.84,9.55 14.66,10.09 14.66,10.09 14.66,10.09 11.34,11.17 8.03,12.26 7.28,13.38 6.54,14.49 5.65,15.44 4.77,16.39 3.84,17.93 2.91,19.47 3.02,18.20 3.14,16.93 3.20,17.33 3.26,17.73 3.22,18.13 3.18,18.54 3.05,18.92 2.91,19.30 2.69,19.64 2.47,19.97 2.18,20.25 1.89,20.52 1.53,20.72 1.18,20.92 0.79,21.03 0.40,21.13 0.00,21.14 -0.39,21.16 -0.79,21.07 -1.18,20.98 -1.54,20.81 -1.90,20.63 -2.21,20.37 -2.52,20.11 -2.76,19.78 -3.00,19.46 -3.15,19.09 -3.30,18.71 -3.65,17.49 -4.00,16.27 -4.37,15.17 -4.74,14.07 -4.73,12.90 -4.72,11.73 -4.66,10.56 -4.60,9.39 -4.49,8.06 -4.38,6.74 -4.06,5.44 -3.74,4.15 -3.40,2.91 -3.06,1.68 -2.82,0.58 -2.58,-0.51 -2.48,-0.81 -2.38,-1.12 -2.21,-1.39 -2.04,-1.65 -1.82,-1.88 -1.59,-2.10 -1.31,-2.26 -1.04,-2.42 -0.73,-2.51 -0.43,-2.60 -0.11,-2.61 0.20,-2.62 0.51,-2.56 0.82,-2.50 1.11,-2.36 1.40,-2.23 1.64,-2.03 1.89,-1.83 2.08,-1.58 2.27,-1.32 2.40,-1.03 2.53,-0.74 2.58,-0.43 2.63,-0.11 2.61,0.20 2.58,0.51 2.58,0.51 L 2.58,0.51 Z"></path></g><g transform="translate(228.72449133271812 239.50000000000023) rotate(0 6.153846153846189 -9.230769230769283)" stroke="none"><path fill="#da77f2" d="M 0,-2.63 Q 0,-2.63 1.10,-2.65 2.21,-2.68 3.48,-2.70 4.76,-2.73 6.59,-2.84 8.42,-2.95 9.50,-2.69 10.57,-2.43 9.75,-1.72 8.94,-1.01 8.56,-2.16 8.19,-3.32 8.16,-4.67 8.14,-6.02 8.11,-7.33 8.08,-8.63 8.06,-9.80 8.03,-10.96 8.45,-12.92 8.86,-14.87 8.87,-17.14 8.89,-19.41 9.00,-19.95 9.12,-20.49 9.41,-20.97 9.70,-21.44 10.12,-21.80 10.54,-22.16 11.05,-22.36 11.57,-22.57 12.12,-22.60 12.68,-22.63 13.21,-22.48 13.74,-22.33 14.20,-22.02 14.66,-21.71 14.99,-21.27 15.33,-20.83 15.50,-20.30 15.68,-19.78 15.68,-19.22 15.68,-18.67 15.50,-18.14 15.33,-17.62 14.99,-17.18 14.65,-16.74 14.20,-16.43 13.74,-16.12 13.20,-15.97 12.67,-15.82 12.12,-15.85 11.56,-15.88 11.05,-16.09 10.54,-16.29 10.11,-16.65 9.69,-17.01 9.41,-17.49 9.12,-17.96 9.00,-18.50 8.88,-19.04 8.95,-19.59 9.01,-20.14 9.24,-20.65 9.47,-21.15 9.85,-21.55 10.23,-21.95 10.72,-22.21 11.21,-22.47 11.76,-22.56 12.31,-22.65 12.85,-22.56 13.40,-22.47 13.89,-22.21 14.38,-21.95 14.76,-21.55 15.14,-21.14 15.37,-20.64 15.60,-20.14 15.66,-19.59 15.72,-19.04 15.72,-19.04 15.72,-19.04 15.38,-15.00 15.03,-10.96 15.01,-9.80 14.99,-8.63 14.96,-7.33 14.93,-6.02 14.90,-4.62 14.86,-3.22 14.75,-1.81 14.64,-0.39 13.82,1.05 12.99,2.49 10.79,3.05 8.59,3.61 6.97,3.17 5.36,2.73 3.78,2.70 2.21,2.68 1.10,2.65 0,2.63 -0.31,2.59 -0.63,2.55 -0.92,2.44 -1.22,2.33 -1.48,2.15 -1.74,1.97 -1.95,1.73 -2.16,1.49 -2.31,1.21 -2.46,0.93 -2.54,0.62 -2.61,0.31 -2.61,-0.00 -2.61,-0.31 -2.54,-0.62 -2.46,-0.93 -2.31,-1.21 -2.16,-1.49 -1.95,-1.73 -1.74,-1.97 -1.48,-2.15 -1.22,-2.33 -0.92,-2.44 -0.63,-2.55 -0.31,-2.59 0.00,-2.63 0.00,-2.63 L 0,-2.63 Z"></path></g><g stroke-linecap="round" transform="translate(238.72449133271812 240.26923076923094) rotate(0 20.769230769230717 12.692307692307622)"><path d="M6.35 0 C11.77 -1.11, 20.09 -0.06, 35.19 0 M6.35 0 C15.71 -0.61, 23.2 0.97, 35.19 0 M35.19 0 C37.69 -1.91, 39.99 2.03, 41.54 6.35 M35.19 0 C41.04 2.19, 42.09 0.69, 41.54 6.35 M41.54 6.35 C41.21 9.57, 40.79 15.22, 41.54 19.04 M41.54 6.35 C41.95 10.81, 41.8 16.07, 41.54 19.04 M41.54 19.04 C40.29 23.95, 38.77 24.56, 35.19 25.38 M41.54 19.04 C42.03 21.16, 39.36 24.99, 35.19 25.38 M35.19 25.38 C23.69 26.62, 13.1 26.07, 6.35 25.38 M35.19 25.38 C26.83 25.87, 18.58 25.67, 6.35 25.38 M6.35 25.38 C0.79 26.99, 1.01 21.85, 0 19.04 M6.35 25.38 C3.85 27.39, 0.69 24.9, 0 19.04 M0 19.04 C0.58 15.15, 0.88 10.53, 0 6.35 M0 19.04 C-0.57 14.43, 0.51 10.47, 0 6.35 M0 6.35 C1.07 4.05, 0.49 -1.59, 6.35 0 M0 6.35 C-1.42 4.16, 3.4 2.03, 6.35 0" stroke="#da77f2" stroke-width="1" fill="none"></path></g><g transform="translate(248.72449133271766 241.80769230769238) rotate(0 12.179985046386719 12.5)"><text x="0" y="17.52" font-family="Virgil, Segoe UI Emoji" font-size="20px" fill="#da77f2" text-anchor="start" style="white-space: pre;" direction="ltr" dominant-baseline="alphabetic">dir</text></g><g stroke-linecap="round" transform="translate(134.1091067173329 501.8076923076924) rotate(0 21.538461538461434 17.5)"><path d="M8.75 0 C16.42 1.65, 25.27 1.13, 34.33 0 M8.75 0 C18.58 0.93, 26.91 0.03, 34.33 0 M34.33 0 C38.91 1.98, 43.66 4.6, 43.08 8.75 M34.33 0 C40.89 1.09, 42.7 4.17, 43.08 8.75 M43.08 8.75 C44.64 17.14, 41.52 20.98, 43.08 26.25 M43.08 8.75 C42.75 14.79, 43.46 20.56, 43.08 26.25 M43.08 26.25 C41.82 32.82, 41.48 36.68, 34.33 35 M43.08 26.25 C42 32.06, 38.42 32.72, 34.33 35 M34.33 35 C24.2 35.33, 14.04 34.73, 8.75 35 M34.33 35 C27.78 35.22, 22.6 35.51, 8.75 35 M8.75 35 C1.49 33.61, 1.88 32.27, 0 26.25 M8.75 35 C3.26 35.2, -2.25 33.36, 0 26.25 M0 26.25 C-1.27 21.45, -0.7 15.33, 0 8.75 M0 26.25 C-0.62 22.52, -0.73 18.71, 0 8.75 M0 8.75 C0.9 1.37, 3.43 -1.46, 8.75 0 M0 8.75 C-0.57 4.14, 4.87 2.05, 8.75 0" stroke="#da77f2" stroke-width="1" fill="none"></path></g><g transform="translate(139.74758961809903 506.8076923076924) rotate(0 15.899978637695312 12.5)"><text x="15.899978637695312" y="17.52" font-family="Virgil, Segoe UI Emoji" font-size="20px" fill="#da77f2" text-anchor="middle" style="white-space: pre;" direction="ltr" dominant-baseline="alphabetic">pos</text></g><g stroke-linecap="round" transform="translate(111.03218364041004 285.6538461538464) rotate(0 31.923076923077133 15)"><path d="M7.5 0 C26.87 -1.56, 44.6 0.67, 56.35 0 M7.5 0 C24.38 0.69, 42.17 0.37, 56.35 0 M56.35 0 C62.31 0.47, 62 3.9, 63.85 7.5 M56.35 0 C59.85 1.67, 64.43 3.23, 63.85 7.5 M63.85 7.5 C63.43 10.8, 62.9 16.03, 63.85 22.5 M63.85 7.5 C63.45 12.75, 64.13 17.66, 63.85 22.5 M63.85 22.5 C63.44 25.51, 60.11 29, 56.35 30 M63.85 22.5 C64.26 26.7, 59.39 30.66, 56.35 30 M56.35 30 C43.69 29.8, 31.01 30, 7.5 30 M56.35 30 C42.72 28.6, 28.58 30.32, 7.5 30 M7.5 30 C3.15 28.17, -1.15 27.63, 0 22.5 M7.5 30 C2.65 29.1, -0.57 25.97, 0 22.5 M0 22.5 C-0.82 19.82, 1.17 17.63, 0 7.5 M0 22.5 C-0.59 17.23, -0.62 10.81, 0 7.5 M0 7.5 C-1.41 0.58, 1.32 -1.63, 7.5 0 M0 7.5 C-2.21 3.14, 1.93 -0.73, 7.5 0" stroke="#da77f2" stroke-width="1" fill="none"></path></g><g transform="translate(116.7551949506942 290.6538461538464) rotate(0 26.20006561279297 10)"><text x="26.20006561279297" y="14.016" font-family="Virgil, Segoe UI Emoji" font-size="16px" fill="#da77f2" text-anchor="middle" style="white-space: pre;" direction="ltr" dominant-baseline="alphabetic">target</text></g><g stroke-linecap="round"><g transform="translate(130.26295287117955 285.6538461538462) rotate(0 11.538461538461434 -62.307692307692264)"><path d="M0.57 0.84 C4.19 -10, 19.33 -44.25, 22.75 -65.14 C26.17 -86.03, 21.61 -114.42, 21.09 -124.53 M-0.6 0.23 C2.76 -10.43, 18.11 -43.31, 21.63 -63.88 C25.14 -84.44, 20.88 -112.92, 20.49 -123.16" stroke="#da77f2" stroke-width="1" fill="none"></path></g></g><mask></mask><g transform="translate(150.26295287117955 228.73076923076928) rotate(0 -6.153846153846189 5)" stroke="none"><path fill="#da77f2" d="M 1.57,2.10 Q 1.57,2.10 0.70,2.78 -0.16,3.47 -1.06,4.06 -1.96,4.66 -2.98,5.62 -4.00,6.57 -5.20,7.46 -6.40,8.34 -8.63,10.58 -10.86,12.81 -11.35,12.97 -11.84,13.13 -12.35,13.12 -12.86,13.11 -13.34,12.94 -13.83,12.77 -14.23,12.45 -14.63,12.14 -14.91,11.71 -15.20,11.28 -15.32,10.78 -15.45,10.29 -15.42,9.78 -15.38,9.27 -15.19,8.80 -14.99,8.32 -14.65,7.94 -14.31,7.55 -13.87,7.29 -13.43,7.04 -12.93,6.93 -12.43,6.83 -11.92,6.90 -11.41,6.96 -10.95,7.18 -10.49,7.40 -10.12,7.76 -9.75,8.12 -9.52,8.57 -9.29,9.03 -9.21,9.54 -9.14,10.04 -9.23,10.55 -9.32,11.05 -9.57,11.50 -9.81,11.95 -10.19,12.30 -10.57,12.64 -11.03,12.85 -11.50,13.06 -12.01,13.10 -12.52,13.15 -13.02,13.03 -13.52,12.92 -13.95,12.65 -14.39,12.38 -14.71,11.98 -15.04,11.59 -15.22,11.11 -15.40,10.63 -15.42,10.12 -15.44,9.60 -15.30,9.11 -15.15,8.62 -14.86,8.20 -14.57,7.78 -14.15,7.48 -13.74,7.18 -13.74,7.18 -13.74,7.18 -12.19,6.00 -10.63,4.82 -9.53,3.67 -8.42,2.53 -7.33,1.75 -6.25,0.97 -4.81,0.07 -3.37,-0.81 -2.47,-1.46 -1.57,-2.10 -1.30,-2.26 -1.02,-2.42 -0.72,-2.51 -0.41,-2.59 -0.10,-2.61 0.21,-2.62 0.52,-2.56 0.83,-2.49 1.12,-2.36 1.40,-2.22 1.65,-2.02 1.90,-1.82 2.09,-1.56 2.28,-1.31 2.40,-1.02 2.52,-0.73 2.58,-0.41 2.63,-0.10 2.60,0.21 2.57,0.52 2.47,0.83 2.37,1.13 2.20,1.39 2.03,1.66 1.80,1.88 1.57,2.10 1.57,2.10 L 1.57,2.10 Z"></path></g><g transform="translate(151.0321836404105 227.19230769230785) rotate(0 5 8.461538461538453)" stroke="none"><path fill="#da77f2" d="M 2.66,0 Q 2.66,0 2.69,0.88 2.73,1.76 3.15,2.81 3.57,3.86 4.25,4.94 4.92,6.03 5.66,7.31 6.40,8.58 7.07,10.03 7.74,11.49 8.58,12.39 9.41,13.29 10.27,13.58 11.12,13.87 11.58,14.13 12.04,14.39 12.39,14.78 12.74,15.17 12.95,15.66 13.15,16.14 13.19,16.66 13.24,17.19 13.11,17.70 12.98,18.21 12.70,18.65 12.41,19.10 12.00,19.42 11.59,19.75 11.10,19.93 10.60,20.11 10.08,20.13 9.55,20.14 9.05,19.98 8.54,19.83 8.12,19.52 7.69,19.21 7.38,18.79 7.08,18.36 6.92,17.85 6.77,17.35 6.79,16.82 6.80,16.30 6.98,15.80 7.17,15.31 7.50,14.90 7.83,14.49 8.27,14.21 8.72,13.93 9.23,13.80 9.74,13.68 10.26,13.72 10.79,13.76 11.27,13.97 11.75,14.18 12.14,14.53 12.53,14.89 12.79,15.34 13.05,15.80 13.15,16.32 13.25,16.84 13.17,17.36 13.10,17.88 12.87,18.35 12.63,18.82 12.26,19.19 11.89,19.56 11.42,19.80 10.94,20.03 10.42,20.10 9.90,20.17 9.38,20.07 8.87,19.97 8.87,19.97 8.87,19.97 6.40,18.38 3.92,16.79 2.99,15.45 2.06,14.11 1.61,12.93 1.16,11.75 0.29,9.92 -0.56,8.09 -1.42,6.67 -2.28,5.24 -2.50,3.50 -2.73,1.76 -2.69,0.88 -2.66,0 -2.62,-0.31 -2.58,-0.63 -2.47,-0.93 -2.35,-1.23 -2.17,-1.50 -1.99,-1.76 -1.75,-1.97 -1.51,-2.19 -1.22,-2.34 -0.94,-2.49 -0.63,-2.56 -0.32,-2.64 0.00,-2.64 0.32,-2.64 0.63,-2.56 0.94,-2.49 1.22,-2.34 1.51,-2.19 1.75,-1.97 1.99,-1.76 2.17,-1.50 2.35,-1.23 2.47,-0.93 2.58,-0.63 2.62,-0.31 2.66,0.00 2.66,0.00 L 2.66,0 Z"></path></g></svg>
